<svg id="Capa_1" enable-background="new 0 0 512.055 512.055" height="512" viewBox="0 0 512.055 512.055" width="512" xmlns="http://www.w3.org/2000/svg"><path d="m506.207 189.519-95.808-95.808c-4.799-4.799-9.353-7.538-15.194-9.134l-56.309-17.261c-.478-3.525-1.584-6.98-3.261-9.884-.049-.084-.099-.168-.15-.25l-13.821-22.404c-.041-.066-.088-.124-.13-.189-3.276-5.258-9.026-8.561-15.489-8.561h-99.95c-6.681 0-12.673 3.542-15.91 9.163l-13.566 21.991c-.051.083-.102.167-.15.251-1.677 2.905-2.784 6.362-3.262 9.882l-56.359 17.263c-5.84 1.596-10.394 4.335-15.193 9.134l-95.808 95.806c-3.771 3.77-5.847 8.793-5.847 14.144 0 5.35 2.077 10.372 5.846 14.142l64.344 64.344c7.372 7.372 19.255 7.624 27.64.59l9.958-8.354v201.645c0 5.522 4.477 10 10 10h276.476c5.523 0 10-4.478 10-10v-201.646l9.958 8.354c8.386 7.035 20.269 6.781 27.641-.59l64.345-64.345c7.797-7.797 7.796-20.486-.001-28.283zm-55.027-26.742 20.947 20.947c-2.77 3.771-7.227 6.154-12.1 6.154-8.271 0-15-6.729-15-15 0-4.874 2.383-9.331 6.153-12.101zm-258.139-90.417c-.27-1.132.003-3.55.702-4.844l4.067-6.593 37.11 24.74-32.304 27.783zm121.242-11.453 4.078 6.61c.698 1.294.971 3.713.69 4.892l-9.563 41.039-32.32-27.797zm-13.737-14.879-44.513 29.675-44.512-29.675zm-187.92 88.648c0 8.271-6.729 15.001-15 15.001-6.304 0-11.827-4.003-14.006-9.647l19.359-19.359c5.645 2.179 9.647 7.702 9.647 14.005zm15.162 186.259c1.588-.561 3.269-.858 5-.858 8.271 0 15 6.729 15 15s-6.729 15-15 15c-1.73 0-3.412-.297-5-.858zm98.238 140.093c0-8.271 6.729-15 15-15 1.73 0 3.412.297 5 .858v19.141h-19.142c-.561-1.588-.858-3.269-.858-4.999zm40-174.875c1.567-.556 3.245-.875 5-.875 8.271 0 15 6.729 15 15s-6.729 15-15 15c-1.755 0-3.433-.319-5-.875zm118.238 114.667c-1.588.561-3.269.858-5 .858-8.271 0-15-6.729-15-15s6.729-15 15-15c1.73 0 3.411.297 5 .858zm43.618-132.978c-.175-.039-.474-.149-.805-.428l-26.386-22.137c-2.977-2.498-7.13-3.045-10.654-1.401-3.522 1.642-5.773 5.177-5.773 9.063v99.11c-1.644-.234-3.31-.372-5-.372-19.299 0-35 15.701-35 35s15.701 35 35 35c1.689 0 3.356-.138 5-.372v44.721h-108.609c.234-1.644.372-3.31.372-4.999 0-9.161-3.673-17.974-10-24.467v-101.645c1.634.235 3.302.363 5 .363 19.299 0 35-15.701 35-35s-15.701-35-35-35c-1.698 0-3.366.128-5 .363v-43.953c0-5.522-4.477-10-10-10s-10 4.478-10 10v54.128c-6.181 6.315-10.001 14.949-10.001 24.462s3.82 18.147 10.001 24.462v101.66c-1.644-.234-3.31-.372-5-.372-19.299 0-35 15.701-35 35 0 1.689.138 3.355.372 4.999h-78.61v-96.322c1.644.234 3.31.372 5 .372 19.299 0 35-15.701 35-35s-15.701-35-35-35c-1.689 0-3.356.138-5 .372v-47.51c0-3.886-2.251-7.421-5.773-9.063-3.523-1.645-7.677-1.098-10.654 1.401l-26.386 22.137c-.331.278-.629.389-.805.428l-64.182-64.181 48.985-48.985c6.385 9.071 16.941 15.001 28.653 15.001 19.299 0 35-15.701 35-35.001 0-11.664-5.884-22.181-14.893-28.574 1.437-1.147 2.751-1.794 4.474-2.256.115-.03.229-.063.342-.098l53.455-16.374 8.349 35.829c1.287 5.524 5.162 9.946 10.365 11.828 1.858.672 3.795 1.002 5.735 1.002 3.813 0 7.635-1.274 10.877-3.728.166-.126.328-.257.486-.393l34.21-29.423v29.197c0 5.522 4.477 10 10 10s10-4.478 10-10v-29.241l34.261 29.466c.158.136.32.267.486.393 3.242 2.453 7.063 3.728 10.877 3.728 1.939 0 3.876-.33 5.734-1.002 5.203-1.882 9.078-6.304 10.365-11.827l8.348-35.828 53.402 16.371c.114.035.229.068.344.099 2.455.658 4.073 1.669 6.411 4.008l40.712 40.711c-7.395 6.505-11.941 16.02-11.941 26.312 0 19.299 15.701 35 35 35 10.293 0 19.808-4.546 26.313-11.941l5.725 5.725z"/><path d="m348.427 171.077c-19.299 0-35 15.701-35 35.001 0 19.299 15.701 35 35 35s35-15.701 35-35c.001-19.3-15.7-35.001-35-35.001zm0 50.001c-8.271 0-15-6.729-15-15s6.729-15.001 15-15.001 15 6.729 15 15.001-6.728 15-15 15z"/><path d="m190.026 171.676c-19.299 0-35 15.701-35 35 0 19.3 15.701 35.001 35 35.001s35-15.701 35-35.001c0-19.298-15.701-35-35-35zm0 50.001c-8.271 0-15-6.729-15-15.001s6.729-15 15-15 15 6.729 15 15-6.729 15.001-15 15.001z"/><path d="m256.026 166.688c-5.523 0-10 4.481-10 10.004s4.477 10 10 10 10-4.478 10-10v-.008c0-5.522-4.477-9.996-10-9.996z"/></svg>