<svg id="Capa_1" enable-background="new 0 0 512 512" height="512" viewBox="0 0 512 512" width="512" xmlns="http://www.w3.org/2000/svg"><path d="m482 46c0-5.523-4.478-10-10-10h-432c-5.522 0-10 4.477-10 10v55.979c-19.374 20.852-30 47.833-30 76.451v287.57c0 5.523 4.478 10 10 10h216c5.522 0 10-4.477 10-10v-150c0-11.028 8.972-20 20-20s20 8.972 20 20v150c0 5.523 4.478 10 10 10h216c5.522 0 10-4.477 10-10v-287.57c0-28.619-10.626-55.599-30-76.451zm-20 50h-164.994c4.646-22.795 24.847-40 48.994-40h116zm-164.923-40c-10.739 10.509-18.114 24.433-20.351 40h-41.451c-2.237-15.567-9.613-29.491-20.351-40zm-247.077 0h116c24.146 0 44.348 17.205 48.994 40h-164.994zm-30 122.43c0-23.337 8.599-45.346 24.282-62.44h18.719c-1.964 5.575-3.001 11.462-3.001 17.43v322.58h-40zm472 277.57h-40v-125c0-5.523-4.478-10-10-10s-10 4.477-10 10v125h-136v-140c0-22.056-17.944-40-40-40s-40 17.944-40 40v140h-136v-322.58c0-6.176 1.786-12.223 5.088-17.42h130.912v80c0 5.523 4.478 10 10 10s10-4.477 10-10v-80h40v80c0 5.523 4.478 10 10 10s10-4.477 10-10v-80h130.912c3.302 5.197 5.088 11.244 5.088 17.42v107.58c0 5.523 4.478 10 10 10s10-4.477 10-10v-107.58c0-5.968-1.037-11.855-3.001-17.42h18.719c15.683 17.084 24.282 39.093 24.282 62.43z"/><circle cx="442" cy="286" r="10"/></svg>