<svg height="512" viewBox="0 0 64 64" width="512" xmlns="http://www.w3.org/2000/svg"><g id="Jeans-3" data-name="Jeans"><path d="m49 2h-34a1 1 0 0 0 -1 1v58a1 1 0 0 0 1 1h11a1 1 0 0 0 1-.917l2.92-35.083h4.16l2.92 35.083a1 1 0 0 0 1 .917h11a1 1 0 0 0 1-1v-58a1 1 0 0 0 -1-1zm-3 6h2v8h-1a1 1 0 0 1 -1-1zm2-2h-13v-2h13zm-17 0v-2h2v2zm-2-2v2h-13v-2zm-13 4h2v7a1 1 0 0 1 -1 1h-1zm0 52v-3h9.33l-.25 3zm20-35.083a1 1 0 0 0 -1-.917h-6a1 1 0 0 0 -1 .917l-2.5 30.083h-9.5v-37h1a3 3 0 0 0 3-3v-7h24v7a3 3 0 0 0 3 3h1v37h-9.5zm2.92 35.083-.25-3h9.33v3z"/><path d="m27 10h2v2h-2z"/><path d="m27 14h2v2h-2z"/><path d="m35 10h2v2h-2z"/><path d="m35 14h2v2h-2z"/></g></svg>